<?xml version="1.0" encoding="UTF-8"?>
<svg width="148px" height="179px" viewBox="0 0 148 179" version="1.1" xmlns="http://www.w3.org/2000/svg" xmlns:xlink="http://www.w3.org/1999/xlink">
    <!-- Generator: Sketch 47.1 (45422) - http://www.bohemiancoding.com/sketch -->
    <title>Group</title>
    <desc>Created with Sketch.</desc>
    <defs></defs>
    <g id="Page-1" stroke="none" stroke-width="1" fill="none" fill-rule="evenodd">
        <g id="Group" transform="translate(2.000000, 0.000000)">
            <ellipse id="Oval" stroke="#9E2524" stroke-width="4" fill="#EA1817" cx="72" cy="104.918552" rx="72" ry="72.081448"></ellipse>
            <path d="M85.1851563,60.6682727 C99.7414063,26.0333038 110.229948,7.93577125 116.650781,6.3756751 C128.425781,6.3756751 113.042969,-4.60235446 111.857031,2.25226588 C101.385201,17.4922663 90.5997839,35.8755384 79.5007813,57.4020821 L68.4882813,35.5531753 L74.2507813,62.301368 L38.4,24.7808469 C49.2788752,43.2284795 61.2291356,58.2975901 74.2507813,69.9881786 C77.3952659,72.8112378 78.1595684,73.5789912 82.3695313,72.7631892 C102.806119,68.8030096 123.343098,63.3739584 143.980469,56.4760357 L92.4382813,63.307192 L107.467188,40.8974953 L85.1851563,60.6682727 Z" id="Path-2" fill="#0A3929"></path>
            <path d="M41.0501967,71.3468715 C45.7519093,66.5053142 81.1323206,56.4661765 84.4787939,82.3240015" id="Path-3" stroke="#9E2524" stroke-width="1.6" fill="#EA1817"></path>
            <path d="M34.460453,131.634416 C44.1653505,134.885701 39.0194955,126.903839 39.0194955,110.824794 C39.0194955,94.7457495 56.2993334,73.591662 41.4112119,78.3763133 C26.5230903,83.1609647 16.8,89.2841128 16.8,105.363157 C16.8,121.442202 24.7555555,128.38313 34.460453,131.634416 Z" id="Oval-Copy" fill="#FE4241"></path>
            <path d="M83.4366222,78.4287456 C82.3195427,70.9140941 98.1541245,67.0237477 114.579959,72.6866235" id="Path-4" stroke="#9E2524" stroke-width="1.6"></path>
        </g>
    </g>
</svg>